<svg xmlns="http://www.w3.org/2000/svg" fill="#FFFFFF" viewBox="0 0 235 50" class="Navigation_logo__ZzKRw" style="color: rgb(255, 255, 255) !important; fill: rgb(255, 255, 255) !important;"><g fill="currentColor" style="fill: rgb(255, 255, 255) !important;"><path d="M79.245 17.598c-2.9-2.2-6.6-3.4-10.4-3.4-9.6 0-17.4 7.8-17.4 17.4s7.8 17.4 17.4 17.4 17.6-7.8 17.6-17.4v-30h-7.2zm-10.4 24.4c-5.8 0-10.4-4.7-10.4-10.4s4.7-10.4 10.4-10.4 10.4 4.7 10.4 10.4-4.7 10.4-10.4 10.4M112.845 36.098v-14.6h10.1v-6.9h-10.1v-8.3l-7.3 3.2v27.9c0 6.7 4.2 11.1 10.6 11.1h7.7v-6.8h-6.8c-2.8 0-4.2-1.8-4.2-5.6M91.745 15.098l.2 33.5h7.5l-.3-36.8zM234.945 31.598c0-9.6-6.8-17.6-16.7-17.6-10.5 0-17.6 7.7-17.6 17.5s7.1 17.5 18.1 17.5c6.5 0 11.5-2.7 14.6-7.3l-5.9-3.5c-1.6 2.3-4.6 4.1-8.6 4.1-5.3 0-9.5-2.7-10.7-7.9h26.6c0-.7.2-1.8.2-2.8m-26.9-2.9c1-5 4.7-8.2 10.1-8.2 4.3 0 8.5 2.5 9.5 8.2zM189.545 17.598c-2.9-2.2-6.6-3.4-10.4-3.4-9.6 0-17.4 7.8-17.4 17.4s7.8 17.4 17.4 17.4 17.6-7.8 17.6-17.4v-30h-7.2zm-10.5 24.4c-5.8 0-10.4-4.7-10.4-10.4s4.7-10.4 10.4-10.4 10.4 4.7 10.4 10.4c.1 5.7-4.6 10.4-10.4 10.4M150.245 34.498c0 5.1-2.6 7.7-7.5 7.7s-7.5-2.7-7.5-7.7v-19.6h-7.7v19c0 8.4 4.8 15.4 15.2 15.4s15.2-7 15.2-15.4v-19h-7.7zM29.145 2.698c-1.3-2.3-4.9-3-6.7 0l-21.8 40.4-.2.3c-1.7 3.2 1.8 6.7 5 5l27.4-14.9c.9-.5.3-1.8-.6-1.5l-20.5 6.5 13.9-25.9 18.9 35.7h8.6z" style="fill: rgb(255, 255, 255) !important;"/></g></svg>